<?xml version="1.0" encoding="UTF-8"?>
<svg width="870px" height="407px" viewBox="0 0 870 407" version="1.1" xmlns="http://www.w3.org/2000/svg" xmlns:xlink="http://www.w3.org/1999/xlink">
    <title>Slice</title>
    <g id="Page-1" stroke="none" stroke-width="1" fill="none" fill-rule="evenodd" fill-opacity="0.5" opacity="0.1">
        <g id="Slice-2" transform="translate(-473.000000, -227.000000)" fill="#FFFFFF" fill-rule="nonzero">
            <path d="M749.568,436.584 C867.383,521.222 1029.747,422.318 1158.424,489.299 C1225.374,524.149 1238.951,555.596 1286.995,607.584 C1317.81,640.929 1320.747,646.734 1349.994,670.584 C1379.242,694.433 1432.28,722.012 1432.28,722.012 L1432.28,809.44 L47.57,809.44 L47.57,227.01385 L377.9974,227.01385 C377.9974,227.01385 554.4816,224.26447 638.997,296.4421 C690.4,340.341 689.257,393.258 749.568,436.584 Z" id="Path"></path>
            <path d="M701.998,464.584 C819.813,549.222 982.177,428.461 1110.853,495.441 C1177.804,530.292 1212.853,653.798 1232.353,690.298 C1243.038,710.298 1259.353,728.298 1285.853,742.298 C1312.353,756.298 1384.71,750.012 1384.71,750.012 L1384.71,837.44 L0,837.44 L0,291.5851 L309.856,291.5851 C309.856,291.5851 527.1411,284.5851 597.855,334.728 C659.569,378.489 641.687,421.258 701.998,464.584 Z" id="Path"></path>
        </g>
    </g>
</svg>