<svg xmlns="http://www.w3.org/2000/svg" width="81" height="81" fill="none" xmlns:v="https://vecta.io/nano"><g clip-path="url(#A)"><path d="M81 40.5a40.5 40.5 0 0 1-11.837 28.685A40.5 40.5 0 0 1 40.5 81.072a40.5 40.5 0 0 1-28.663-11.888A40.5 40.5 0 0 1 0 40.5C0 18.132 18.134 0 40.5 0S81 18.132 81 40.5z" fill="#53caf4"/><g stroke="#fff" stroke-width="3" stroke-linejoin="round"><path d="M28.22 29.613h23.69c1.629 0 2.961 1.274 2.961 2.831v16.984c0 1.557-1.333 2.831-2.961 2.831H28.22c-1.629 0-2.961-1.274-2.961-2.831V32.444c0-1.557 1.333-2.831 2.961-2.831z"/><path d="M54.871 32.226L40.065 42.677 25.258 32.226" stroke-linecap="round"/></g></g><defs><clipPath id="A"><path fill="#fff" d="M0 0h81v81H0z"/></clipPath></defs></svg>