<svg xmlns="http://www.w3.org/2000/svg" width="81" height="81" fill="none" xmlns:v="https://vecta.io/nano"><g clip-path="url(#A)"><path d="M81 40.5a40.5 40.5 0 0 1-11.837 28.685A40.5 40.5 0 0 1 40.5 81.072a40.5 40.5 0 0 1-28.663-11.888A40.5 40.5 0 0 1 0 40.5C0 18.132 18.134 0 40.5 0S81 18.132 81 40.5z" fill="#53caf4"/><g stroke="#fff" stroke-width="3" stroke-linejoin="round"><path d="M48.557 29.613H31.573a2.83 2.83 0 0 0-2.831 2.831v16.984a2.83 2.83 0 0 0 2.831 2.831h16.984a2.83 2.83 0 0 0 2.831-2.831V32.444a2.83 2.83 0 0 0-2.831-2.831z"/><path d="M44.42 36.581h-8.71v8.71h8.71v-8.71z"/><g stroke-linecap="round"><path d="M35.71 25.258v4.355m8.709-4.355v4.355M35.71 52.258v4.355m8.709-4.355v4.355m6.968-20.032h4.355m-4.355 6.967h4.355m-31.355-6.967h4.355m-4.355 6.967h4.355"/></g></g></g><defs><clipPath id="A"><path fill="#fff" d="M0 0h81v81H0z"/></clipPath></defs></svg>