<svg xmlns="http://www.w3.org/2000/svg" width="60" height="60" fill="none" stroke="#fff" stroke-width="4" stroke-linecap="round" stroke-linejoin="round" xmlns:v="https://vecta.io/nano"><path d="M52.841 30h-7.5a3.75 3.75 0 0 0-3.75 3.75v9.375a3.75 3.75 0 0 0 3.75 3.75h3.75a3.75 3.75 0 0 0 3.75-3.75V30zm0 0a22.5 22.5 0 0 0-6.651-15.97 22.5 22.5 0 0 0-16.02-6.529 22.5 22.5 0 0 0-16.02 6.529A22.5 22.5 0 0 0 7.5 30v13.125a3.75 3.75 0 0 0 3.75 3.75H15a3.75 3.75 0 0 0 3.75-3.75V33.75A3.75 3.75 0 0 0 15 30H7.5"/><path d="M52.841 43.125v5.625a7.5 7.5 0 0 1-7.5 7.5H31.875"/></svg>