<svg xmlns="http://www.w3.org/2000/svg" xmlns:xlink="http://www.w3.org/1999/xlink" width="81" height="81" fill="none" xmlns:v="https://vecta.io/nano"><g clip-path="url(#A)"><path d="M81 40.5a40.5 40.5 0 0 1-11.837 28.685A40.5 40.5 0 0 1 40.5 81.072a40.5 40.5 0 0 1-28.663-11.888A40.5 40.5 0 0 1 0 40.5C0 18.132 18.134 0 40.5 0S81 18.132 81 40.5z" fill="#53caf4"/><g stroke="#fff" stroke-width="3" stroke-linejoin="round"><use xlink:href="#B"/><path d="M52.258 43.113H27.871a3.05 3.05 0 0 0-3.048 3.048v6.097a3.05 3.05 0 0 0 3.048 3.048h24.387a3.05 3.05 0 0 0 3.048-3.048v-6.097a3.05 3.05 0 0 0-3.048-3.048z"/><g stroke-linecap="round"><path d="M30.919 32.226h.016m-.016 16.984h.016"/></g></g></g><defs><clipPath id="A"><path fill="#fff" d="M0 0h81v81H0z"/></clipPath><path id="B" d="M52.258 26.129H27.871a3.05 3.05 0 0 0-3.048 3.048v6.097a3.05 3.05 0 0 0 3.048 3.048h24.387a3.05 3.05 0 0 0 3.048-3.048v-6.097a3.05 3.05 0 0 0-3.048-3.048z"/></defs></svg>