<svg xmlns="http://www.w3.org/2000/svg" width="81" height="81" fill="none" xmlns:v="https://vecta.io/nano"><g clip-path="url(#A)"><path d="M81 40.5a40.5 40.5 0 0 1-11.837 28.685A40.5 40.5 0 0 1 40.5 81.072a40.5 40.5 0 0 1-28.663-11.888A40.5 40.5 0 0 1 0 40.5C0 18.132 18.134 0 40.5 0S81 18.132 81 40.5z" fill="#53caf4"/><g stroke="#fff" stroke-width="3" stroke-linejoin="round"><path d="M50.719 27.252H29.523a3.03 3.03 0 0 0-3.028 3.028v21.196a3.03 3.03 0 0 0 3.028 3.028h21.196a3.03 3.03 0 0 0 3.028-3.028V30.281a3.03 3.03 0 0 0-3.028-3.028z"/><g stroke-linecap="round"><path d="M26.495 36.337h27.252M35.579 54.505V36.337"/></g></g></g><defs><clipPath id="A"><path fill="#fff" d="M0 0h81v81H0z"/></clipPath></defs></svg>